<?xml version="1.0" encoding="iso-8859-1"?>
<!-- Generator: Adobe Illustrator 19.0.0, SVG Export Plug-In . SVG Version: 6.00 Build 0)  -->
<svg color="#7fffd4" version="1.1" id="Capa_1" xmlns="http://www.w3.org/2000/svg" xmlns:xlink="http://www.w3.org/1999/xlink" x="0px" y="0px"
	 viewBox="0 0 512 512" style="enable-background:new 0 0 512 512;" xml:space="preserve">
<g>
	<g>
		<path fill="currentColor" d="M394.667,234.667h-224v-85.333C170.667,102.272,208.939,64,256,64s85.333,38.272,85.333,85.333v53.333
			c0,5.888,4.779,10.667,10.667,10.667h42.667c5.888,0,10.667-4.779,10.667-10.667v-53.333C405.333,66.987,338.347,0,256,0
			S106.667,66.987,106.667,149.333v87.296c-12.395,4.416-21.333,16.149-21.333,30.037v192c0,29.397,23.936,53.333,53.333,53.333
			h234.667c29.397,0,53.333-23.936,53.333-53.333v-192C426.667,249.024,412.309,234.667,394.667,234.667z M298.112,412.629
			c1.088,3.243,0.533,6.827-1.451,9.621c-2.005,2.773-5.227,4.416-8.661,4.416h-64c-3.435,0-6.656-1.643-8.661-4.437
			c-2.005-2.773-2.56-6.357-1.451-9.621l13.312-39.936c-8.811-7.979-13.867-19.2-13.867-31.339
			c0-23.531,19.136-42.667,42.667-42.667s42.667,19.136,42.667,42.667c0,12.139-5.056,23.36-13.867,31.36L298.112,412.629z"/>
    </g>
</g>
</svg>
